<?xml version="1.0" encoding="UTF-8" standalone="no"?>
<!DOCTYPE svg PUBLIC "-//W3C//DTD SVG 1.1//EN"
 "http://www.w3.org/Graphics/SVG/1.1/DTD/svg11.dtd">
<!-- Generated by graphviz version 2.43.0 (0)
 -->
<!-- Title: AI_Adaptive_Learning_Architecture_SVG Pages: 1 -->
<svg width="576pt" height="220pt"
 viewBox="0.00 0.00 576.00 219.85" xmlns="http://www.w3.org/2000/svg" xmlns:xlink="http://www.w3.org/1999/xlink">
<g id="graph0" class="graph" transform="scale(0.77 0.77) rotate(0) translate(4 281.5)">
<title>AI_Adaptive_Learning_Architecture_SVG</title>
<polygon fill="white" stroke="transparent" points="-4,4 -4,-281.5 744,-281.5 744,4 -4,4"/>
<!-- User -->
<g id="node1" class="node">
<title>User</title>
<path fill="#cce5ff" stroke="black" d="M135,-150C135,-150 12,-150 12,-150 6,-150 0,-144 0,-138 0,-138 0,-124 0,-124 0,-118 6,-112 12,-112 12,-112 135,-112 135,-112 141,-112 147,-118 147,-124 147,-124 147,-138 147,-138 147,-144 141,-150 135,-150"/>
<text text-anchor="middle" x="73.5" y="-134.8" font-family="Times,serif" font-size="14.00">Rural Youth</text>
<text text-anchor="middle" x="73.5" y="-119.8" font-family="Times,serif" font-size="14.00">(Mobile App User)</text>
</g>
<!-- App -->
<g id="node2" class="node">
<title>App</title>
<path fill="#e2f0cb" stroke="black" d="M290,-150C290,-150 195,-150 195,-150 189,-150 183,-144 183,-138 183,-138 183,-124 183,-124 183,-118 189,-112 195,-112 195,-112 290,-112 290,-112 296,-112 302,-118 302,-124 302,-124 302,-138 302,-138 302,-144 296,-150 290,-150"/>
<text text-anchor="middle" x="242.5" y="-134.8" font-family="Times,serif" font-size="14.00">Mobile App</text>
<text text-anchor="middle" x="242.5" y="-119.8" font-family="Times,serif" font-size="14.00">(React Native)</text>
</g>
<!-- User&#45;&gt;App -->
<g id="edge1" class="edge">
<title>User&#45;&gt;App</title>
<path fill="none" stroke="black" d="M147.26,-131C155.7,-131 164.28,-131 172.66,-131"/>
<polygon fill="black" stroke="black" points="172.76,-134.5 182.76,-131 172.76,-127.5 172.76,-134.5"/>
</g>
<!-- Backend -->
<g id="node3" class="node">
<title>Backend</title>
<path fill="#f9e79f" stroke="black" d="M486,-157.5C486,-157.5 350,-157.5 350,-157.5 344,-157.5 338,-151.5 338,-145.5 338,-145.5 338,-116.5 338,-116.5 338,-110.5 344,-104.5 350,-104.5 350,-104.5 486,-104.5 486,-104.5 492,-104.5 498,-110.5 498,-116.5 498,-116.5 498,-145.5 498,-145.5 498,-151.5 492,-157.5 486,-157.5"/>
<text text-anchor="middle" x="418" y="-142.3" font-family="Times,serif" font-size="14.00">Backend APIs</text>
<text text-anchor="middle" x="418" y="-127.3" font-family="Times,serif" font-size="14.00">(Node.js + Express)</text>
<text text-anchor="middle" x="418" y="-112.3" font-family="Times,serif" font-size="14.00">[Azure App Service]</text>
</g>
<!-- App&#45;&gt;Backend -->
<g id="edge2" class="edge">
<title>App&#45;&gt;Backend</title>
<path fill="none" stroke="black" d="M302.24,-131C310.44,-131 319.01,-131 327.61,-131"/>
<polygon fill="black" stroke="black" points="327.71,-134.5 337.71,-131 327.71,-127.5 327.71,-134.5"/>
</g>
<!-- AI -->
<g id="node4" class="node">
<title>AI</title>
<path fill="#f5b7b1" stroke="black" d="M728,-277.5C728,-277.5 546,-277.5 546,-277.5 540,-277.5 534,-271.5 534,-265.5 534,-265.5 534,-236.5 534,-236.5 534,-230.5 540,-224.5 546,-224.5 546,-224.5 728,-224.5 728,-224.5 734,-224.5 740,-230.5 740,-236.5 740,-236.5 740,-265.5 740,-265.5 740,-271.5 734,-277.5 728,-277.5"/>
<text text-anchor="middle" x="637" y="-262.3" font-family="Times,serif" font-size="14.00">AI Engine</text>
<text text-anchor="middle" x="637" y="-247.3" font-family="Times,serif" font-size="14.00">(Python, TF, PyTorch)</text>
<text text-anchor="middle" x="637" y="-232.3" font-family="Times,serif" font-size="14.00">[Azure Cognitive Services]</text>
</g>
<!-- Backend&#45;&gt;AI -->
<g id="edge3" class="edge">
<title>Backend&#45;&gt;AI</title>
<path fill="none" stroke="black" d="M450.06,-157.56C472.31,-175.59 503.6,-198.98 534,-215 537.5,-216.84 541.11,-218.63 544.79,-220.35"/>
<polygon fill="black" stroke="black" points="543.52,-223.61 554.08,-224.5 546.38,-217.22 543.52,-223.61"/>
</g>
<!-- LocalDB -->
<g id="node5" class="node">
<title>LocalDB</title>
<path fill="#d5f5e3" stroke="black" d="M670,-206C670,-206 604,-206 604,-206 598,-206 592,-200 592,-194 592,-194 592,-180 592,-180 592,-174 598,-168 604,-168 604,-168 670,-168 670,-168 676,-168 682,-174 682,-180 682,-180 682,-194 682,-194 682,-200 676,-206 670,-206"/>
<text text-anchor="middle" x="637" y="-190.8" font-family="Times,serif" font-size="14.00">Offline DB</text>
<text text-anchor="middle" x="637" y="-175.8" font-family="Times,serif" font-size="14.00">(SQLite)</text>
</g>
<!-- Backend&#45;&gt;LocalDB -->
<g id="edge4" class="edge">
<title>Backend&#45;&gt;LocalDB</title>
<path fill="none" stroke="black" d="M498.26,-151.45C526.16,-158.65 556.84,-166.57 582.16,-173.1"/>
<polygon fill="black" stroke="black" points="581.37,-176.52 591.93,-175.63 583.12,-169.74 581.37,-176.52"/>
</g>
<!-- CloudDB -->
<g id="node6" class="node">
<title>CloudDB</title>
<path fill="#aed6f1" stroke="black" d="M717.5,-150C717.5,-150 556.5,-150 556.5,-150 550.5,-150 544.5,-144 544.5,-138 544.5,-138 544.5,-124 544.5,-124 544.5,-118 550.5,-112 556.5,-112 556.5,-112 717.5,-112 717.5,-112 723.5,-112 729.5,-118 729.5,-124 729.5,-124 729.5,-138 729.5,-138 729.5,-144 723.5,-150 717.5,-150"/>
<text text-anchor="middle" x="637" y="-134.8" font-family="Times,serif" font-size="14.00">Cloud Storage</text>
<text text-anchor="middle" x="637" y="-119.8" font-family="Times,serif" font-size="14.00">(MongoDB, Azure Blob)</text>
</g>
<!-- Backend&#45;&gt;CloudDB -->
<g id="edge5" class="edge">
<title>Backend&#45;&gt;CloudDB</title>
<path fill="none" stroke="black" d="M498.26,-131C509.99,-131 522.21,-131 534.32,-131"/>
<polygon fill="black" stroke="black" points="534.45,-134.5 544.45,-131 534.45,-127.5 534.45,-134.5"/>
</g>
<!-- Mentor -->
<g id="node7" class="node">
<title>Mentor</title>
<path fill="#fad7a0" stroke="black" d="M707.5,-94C707.5,-94 566.5,-94 566.5,-94 560.5,-94 554.5,-88 554.5,-82 554.5,-82 554.5,-68 554.5,-68 554.5,-62 560.5,-56 566.5,-56 566.5,-56 707.5,-56 707.5,-56 713.5,-56 719.5,-62 719.5,-68 719.5,-68 719.5,-82 719.5,-82 719.5,-88 713.5,-94 707.5,-94"/>
<text text-anchor="middle" x="637" y="-78.8" font-family="Times,serif" font-size="14.00">Mentorship Network</text>
<text text-anchor="middle" x="637" y="-63.8" font-family="Times,serif" font-size="14.00">+ Job Board APIs</text>
</g>
<!-- Backend&#45;&gt;Mentor -->
<g id="edge6" class="edge">
<title>Backend&#45;&gt;Mentor</title>
<path fill="none" stroke="black" d="M498.26,-110.55C515.94,-105.98 534.73,-101.13 552.56,-96.53"/>
<polygon fill="black" stroke="black" points="553.55,-99.89 562.36,-94 551.8,-93.11 553.55,-99.89"/>
</g>
<!-- Monitor -->
<g id="node8" class="node">
<title>Monitor</title>
<path fill="#d7bde2" stroke="black" d="M726,-38C726,-38 548,-38 548,-38 542,-38 536,-32 536,-26 536,-26 536,-12 536,-12 536,-6 542,0 548,0 548,0 726,0 726,0 732,0 738,-6 738,-12 738,-12 738,-26 738,-26 738,-32 732,-38 726,-38"/>
<text text-anchor="middle" x="637" y="-22.8" font-family="Times,serif" font-size="14.00">Monitoring &amp; Analytics</text>
<text text-anchor="middle" x="637" y="-7.8" font-family="Times,serif" font-size="14.00">[Azure Monitor, Power BI]</text>
</g>
<!-- Backend&#45;&gt;Monitor -->
<g id="edge7" class="edge">
<title>Backend&#45;&gt;Monitor</title>
<path fill="none" stroke="black" d="M449.23,-104.15C471.35,-85.75 502.82,-62.04 534,-47 537.86,-45.14 541.87,-43.38 545.96,-41.73"/>
<polygon fill="black" stroke="black" points="547.52,-44.88 555.63,-38.06 545.04,-38.33 547.52,-44.88"/>
</g>
</g>
</svg>
